<?xml version="1.0" standalone="no"?>
<!DOCTYPE svg PUBLIC "-//W3C//DTD SVG 20010904//EN"
 "http://www.w3.org/TR/2001/REC-SVG-20010904/DTD/svg10.dtd">
<svg version="1.0" xmlns="http://www.w3.org/2000/svg"
 width="128.000000pt" height="128.000000pt" viewBox="0 0 128.000000 128.000000"
 preserveAspectRatio="xMidYMid meet">

<g transform="translate(0.000000,128.000000) scale(0.100000,-0.100000)"
fill="#000000" stroke="none">
<path d="M501 1144 c-85 -23 -150 -63 -226 -139 -78 -77 -117 -142 -140 -230
-20 -77 -19 -216 1 -286 77 -261 347 -429 606 -376 221 45 380 204 425 425 53
259 -114 529 -376 606 -68 20 -216 20 -290 0z m264 -59 c154 -41 279 -162 327
-319 17 -55 20 -86 16 -161 -4 -81 -10 -104 -41 -170 -48 -101 -121 -174 -222
-222 -66 -31 -89 -37 -170 -41 -75 -4 -106 -1 -161 16 -279 85 -410 385 -286
652 33 69 140 178 207 210 106 50 224 62 330 35z"/>
<path d="M612 777 c-73 -73 -132 -137 -132 -142 0 -6 60 -70 133 -143 l133
-133 22 24 22 23 -115 114 -115 115 115 115 116 116 -24 22 -23 22 -132 -133z"/>
</g>
</svg>
